<svg width="78" height="45" viewBox="0 0 78 45" fill="none" xmlns="http://www.w3.org/2000/svg">
<path d="M18.6427 3.53575C16.0713 0.964281 5.14278 0.321528 1.60704 0C1.28566 0 0.964131 5.02912e-07 0.642754 0.321377C0.321377 0.642905 0 1.28581 0 1.60719V30.5356C0 31.4999 0.642904 32.1428 1.60719 32.1428H11.25C11.8929 32.1428 12.5357 31.8214 12.8572 31.1785C12.8572 30.2143 18.6429 13.1786 19.2858 4.82156C19.2856 4.50003 19.2856 3.85728 18.6427 3.53575Z" fill="#65B207"/>
<path d="M53.0354 11.2499C49.8212 10.2857 46.9284 9 44.3569 8.03572C38.5712 5.46425 35.9998 6.75006 30.857 11.8928C28.607 14.1428 26.9998 17.3572 27.3212 18.6428C27.3212 18.9642 27.3212 18.9642 27.9641 19.2857C29.5713 19.9286 31.8212 20.25 34.0712 16.7143C34.3926 16.3929 34.7141 16.0713 35.3568 16.0713C36.3211 16.0713 36.6425 15.75 37.6068 15.4284C38.2497 15.1071 38.8924 14.7855 39.8567 14.4642C40.1781 14.4642 40.1781 14.4642 40.4996 14.4642C40.821 14.4642 41.4639 14.7855 41.7853 14.7855C43.3926 16.3929 46.2855 18.6428 49.1783 21.2143C53.6783 24.75 58.1782 28.6072 60.4283 31.5H60.7497C58.4998 25.0714 54.6426 14.1428 53.0354 11.2499Z" fill="#65B207"/>
<path d="M75.5354 3.21448C62.9997 3.21448 55.9284 6.4287 55.6069 6.4287C55.2855 6.75008 54.964 7.0716 54.6426 7.39298C54.6426 7.71436 54.6426 8.35726 54.964 8.67864C56.8925 11.8929 63.3211 29.5715 64.2854 34.0713C64.6068 34.7142 65.2497 35.357 65.8926 35.357H75.5354C76.4997 35.357 77.1426 34.7141 77.1426 33.7498V4.82136C77.1426 3.85738 76.4997 3.21448 75.5354 3.21448Z" fill="#65B207"/>
<path d="M58.1788 34.7144C56.8931 31.8215 51.4288 27.643 46.6074 23.7859C44.0361 21.5358 41.4646 19.6073 39.5361 18.0001C39.2147 18.3214 38.5718 18.3214 38.5718 18.643C37.6075 18.9644 37.2861 19.2859 36.0003 19.2859C33.429 22.5001 30.2146 23.7858 26.679 22.5001C25.0719 22.1787 24.1076 20.8929 23.7862 19.6073C23.1433 16.393 26.0361 11.893 28.2862 9.64307H21.8576C20.572 16.0717 18.3219 24.4287 16.7148 28.9287C18.0005 30.2144 19.2863 31.8215 20.2506 32.4644C26.3577 37.6072 33.4292 42.7502 34.7148 43.7144C35.6791 44.3574 37.6077 45.0001 38.5719 45.0001C38.8933 45.0001 39.2148 45.0001 39.5362 45.0001L34.3933 39.8572C33.7504 39.2143 33.7504 38.25 34.3933 37.6072C35.0362 36.9645 36.0005 36.9643 36.6432 37.6072L43.0718 44.0358C43.7147 44.6787 44.3575 44.3572 45.0004 44.3572C45.9647 44.0358 46.286 43.3929 46.6076 42.4286L39.2147 35.0358C38.5718 34.3929 38.5718 33.4286 39.2147 32.7858C39.8576 32.1431 40.8219 32.1429 41.4646 32.7858L49.5003 40.8215C49.8216 41.1428 51.1075 41.1428 52.0717 40.8215C52.3931 40.5001 53.036 40.1785 53.3574 39.5358L44.3575 30.5357C43.7146 29.8928 43.7146 28.9285 44.3575 28.2858C45.0004 27.643 45.9647 27.6429 46.6074 28.2858L55.9289 37.6072C56.5718 37.9286 57.2145 37.6072 57.8574 37.2859C58.1788 36.9643 58.8217 36 58.1788 34.7144Z" fill="#65B207"/>
</svg>
