<svg width="45" height="45" viewBox="0 0 45 45" fill="none" xmlns="http://www.w3.org/2000/svg">
<path d="M29.1941 34.5501L34.0738 43.6791H24.7845C24.5306 39.4486 25.7905 35.4871 29.0718 32.3513C29.1847 32.5833 29.2881 32.8152 29.4009 33.0379C29.1188 33.4832 28.912 34.0584 29.1941 34.5501ZM16.0029 33.0379C16.2943 33.4832 16.5106 34.0491 16.2191 34.5501L11.3394 43.6698H20.6193C20.8732 39.4393 19.6133 35.4778 16.3319 32.3421C16.2191 32.5833 16.1063 32.8152 16.0029 33.0379ZM12.0163 9.67729C12.2796 9.66801 12.4959 9.44535 12.4865 9.18558C12.477 8.92581 12.242 8.70315 11.9881 8.72171C11.0949 8.74954 10.3146 9.29691 10.0043 10.1226C9.71282 10.8926 9.89146 11.7833 10.4744 12.3863C10.6624 12.5811 10.9633 12.5811 11.1607 12.4049C11.3582 12.2193 11.3582 11.9224 11.1796 11.7276C10.4368 11.004 10.9821 9.68656 12.0163 9.67729ZM8.47174 13.0728C8.87603 13.0821 9.12048 12.5533 8.81962 12.2657C7.17424 10.6236 8.37772 7.70119 10.7283 7.67336C10.9915 7.66408 11.2078 7.44142 11.1984 7.18165C11.189 6.92189 10.9633 6.69923 10.7 6.71778C9.1863 6.76417 7.8606 7.70119 7.32468 9.08353C6.82636 10.3916 7.13663 11.8946 8.12386 12.9151C8.20848 13.0172 8.34011 13.0728 8.47174 13.0728ZM33.8575 7.6548C34.8918 7.54347 35.5781 8.79593 34.9294 9.59379C34.7695 9.80717 34.8071 10.104 35.0234 10.2618C35.2302 10.4195 35.5405 10.3824 35.7003 10.169C36.2081 9.51029 36.2927 8.61038 35.9166 7.86818C35.5123 7.08888 34.6755 6.63428 33.7917 6.68995C33.5284 6.7085 33.3216 6.94044 33.3498 7.20021C33.3592 7.47853 33.5943 7.67336 33.8575 7.6548ZM34.92 5.52099C37.2611 5.29833 38.7748 8.06301 37.3175 9.88139C36.9414 10.3824 37.703 10.9576 38.0885 10.4566C40.0441 7.98879 38.0133 4.28709 34.8447 4.56542C34.2148 4.6118 34.29 5.56738 34.92 5.52099ZM14.4045 9.72367C13.4549 11.3658 13.6335 13.5645 14.7994 15.3644L15.1755 14.7613C15.608 14.0098 16.8302 14.1397 17.1029 14.9561C18.0055 14.1583 18.6449 13.2491 19.3312 12.2193C19.4252 12.1451 19.5475 12.0894 19.6697 12.108C20.7979 12.2842 21.9826 12.5811 23.1485 12.4976C23.9853 12.5069 24.8315 12.2657 25.6871 12.1915C25.8751 12.1729 26.0819 12.2657 26.1666 12.4327C26.6743 13.4068 27.4265 14.3067 28.2726 15.0304C28.4513 14.316 29.4103 14.0191 29.9744 14.4923C30.2001 14.6314 30.5198 15.2623 30.6702 15.4664C31.7138 13.8892 32.1275 10.9483 30.4821 9.15775C30.4163 9.07425 30.3787 8.9722 30.3693 8.87943C30.3129 7.45998 29.5137 6.17969 28.282 5.54882C26.8059 4.80663 25.3392 5.32617 25.0571 5.43749C24.8879 5.50244 24.7092 5.47461 24.5682 5.36328C22.716 3.81394 19.4158 4.22215 18.2312 7.07032C18.1747 7.20949 18.0431 7.32082 17.8833 7.34865C17.1687 7.50636 15.3729 8.05373 14.4045 9.72367ZM26.5803 21.07C26.7119 23.2038 26.1196 23.9831 23.8912 24.3171C22.2835 24.447 19.9141 24.5583 19.0303 22.9719C18.7671 22.3874 18.8987 21.7101 18.8329 21.07C18.6919 19.6413 17.479 19.2052 16.6234 20.4206C16.5764 20.4762 16.0781 18.9269 16.0781 18.7506C16.0593 18.194 16.2003 17.5353 16.4824 17.0528C17.338 15.6798 18.8611 14.3531 20.0646 13.2584C20.262 13.1749 20.4783 13.2213 20.6851 13.2677C22.1048 13.546 23.581 13.546 25.0007 13.2769C25.1511 13.2491 25.3298 13.212 25.4614 13.2955C25.5742 13.3512 25.64 13.481 25.7059 13.5831C26.176 14.3717 26.8905 14.984 27.5675 15.6241C28.9026 16.7281 30.2283 18.9176 28.7334 20.3742C27.8872 19.1959 26.6649 19.7062 26.5803 21.07ZM22.4903 20.3834C21.6159 20.4484 19.9329 20.9401 20.3937 21.7101C20.5441 21.9328 20.845 21.9792 21.0706 21.8307C21.945 21.1442 23.581 21.2277 24.3331 21.8307C24.5494 21.9792 24.8503 21.9235 25.0101 21.7101C25.5178 20.9215 23.5716 20.3092 22.4903 20.3834ZM32.0523 19.7804C31.648 18.4723 30.6702 17.3776 30.0214 16.1715C29.824 15.8468 29.2411 14.8912 29.3539 15.7726C29.4197 16.2735 29.7676 16.8209 29.9838 17.2662C30.9711 19.0568 31.2437 20.5041 30.3223 22.3967C29.918 23.2502 29.7018 24.2336 29.1753 25.0222C28.2256 25.82 27.8966 22.5915 27.9718 22.0534C27.9906 21.5895 28.047 21.0514 27.7367 20.6989C26.5615 24.4841 28.3479 28.5754 30.012 31.9895C30.5762 30.9597 31.3001 29.9578 31.789 28.9001C30.2471 26.1076 32.0899 22.7585 32.0523 19.7804ZM15.4105 32.0266C17.0559 28.5198 18.8047 24.549 17.6952 20.6432C17.3192 20.9865 17.4226 21.5802 17.4602 22.0905C17.5166 22.9347 17.2721 23.7604 17.0371 24.5676C16.9525 24.8459 16.7926 25.1892 16.4918 25.1799C16.2285 25.1706 16.0687 24.883 15.9746 24.6325C15.4857 23.1574 14.6677 21.738 14.4327 20.2072C14.5737 18.5558 15.5892 17.09 16.1345 15.5406C16.1909 15.4107 16.2097 15.1974 16.0593 15.1788C15.561 15.9674 15.0626 16.756 14.5643 17.5446C14.1976 18.129 13.3985 18.9733 13.2762 19.6413C13.1446 20.3556 13.5489 21.4596 13.6523 22.174C13.7839 23.0461 13.925 23.9274 14.0566 24.7995C14.2729 26.1911 14.4421 27.7683 13.5489 28.8723C14.1694 29.9207 14.79 30.9783 15.4105 32.0266ZM27.1256 27.9538C26.6085 26.5715 26.27 26.1447 26.364 25.0129L26.1948 24.5397C24.0511 25.6994 21.3621 25.718 19.2184 24.5305L19.0491 25.0129C19.1432 26.1355 18.8047 26.5715 18.2876 27.9446C20.4595 30.1248 24.9067 30.1897 27.1256 27.9538ZM38.0791 34.3831C37.4021 31.4793 37.4961 29.6423 34.1584 28.6311L38.0791 34.3831ZM40.6647 39.8754C38.2389 36.3314 35.7097 32.6111 33.2934 29.0764C33.1712 28.9094 32.9831 28.9001 32.8609 29.0857C32.8515 29.095 30.0685 33.8636 30.0591 33.8728C30.0214 33.9471 30.0308 34.0398 30.0591 34.1048L34.9576 43.2616C35.8508 45.0429 38.427 45.5717 39.9595 44.2543L40.3356 44.579L40.0253 44.2079C41.3322 43.1317 41.6143 41.2762 40.6647 39.8754ZM28.4231 31.6555C28.5735 31.5349 28.6487 31.3587 28.5359 31.1917C28.1974 30.4402 27.859 29.6887 27.5205 28.9372C25.452 30.5515 22.5655 30.9226 20.0834 30.1248C19.8201 30.0413 17.7705 29.1599 17.8833 28.928C17.5542 29.7629 17.0277 30.5608 16.8208 31.4143C20.0458 34.5965 22.0202 39.1146 21.5689 43.6791H23.816C23.4399 39.263 25.1793 34.7171 28.4231 31.6555ZM15.3635 33.8728L15.0532 33.3069L12.5711 29.095C12.4394 28.9187 12.3266 28.9187 12.1856 29.0022C12.1198 29.0486 4.8143 39.8011 4.75789 39.8754C2.34154 43.7719 8.14266 47.186 10.465 43.2616L15.3635 34.1141C15.4011 34.0306 15.4011 33.9471 15.3635 33.8728ZM7.89821 31.804L7.32468 34.3831C8.63157 32.472 9.93847 30.5515 11.2454 28.6404L10.4744 28.9187C9.14869 29.3918 8.18967 30.468 7.89821 31.804ZM0.00040718 20.1237C0.00040718 17.7858 2.20991 15.8839 4.92713 15.8839C8.82902 15.8189 11.424 19.9103 8.79141 22.7492L9.54358 24.1501C9.6376 24.3264 9.6094 24.549 9.46836 24.6975C9.32733 24.8459 9.10168 24.8923 8.91364 24.8088L6.9956 23.9645C3.98691 25.2819 -0.0466035 23.278 0.00040718 20.1237ZM4.47583 21.0421C4.53224 21.6173 5.38783 21.6081 5.44425 21.0421L5.73571 18.0919C5.76392 17.8136 5.53827 17.5631 5.2468 17.5631C4.99294 17.5817 4.48523 17.4796 4.30659 17.7208C4.21257 17.8229 4.17496 17.9528 4.18436 18.0919L4.47583 21.0421ZM4.95534 22.7492C5.58528 22.7492 5.60408 21.7658 4.95534 21.7751C4.32539 21.7936 4.30659 22.7399 4.95534 22.7492ZM44.7264 20.1237C44.7828 23.278 40.7493 25.2727 37.7218 23.9738L35.8038 24.8181C35.6157 24.9016 35.3901 24.8645 35.249 24.7067C35.108 24.5583 35.0798 24.3356 35.1738 24.1594L35.926 22.7585C33.2934 19.9196 35.8884 15.8189 39.7903 15.8932C42.5169 15.8839 44.7264 17.7858 44.7264 20.1237ZM40.2886 22.0905C40.3074 21.4504 39.3202 21.4504 39.3202 22.0905C39.3202 22.7121 40.2792 22.7121 40.2886 22.0905ZM40.0911 17.9713C39.4612 17.8229 38.803 18.1754 38.615 18.7877C38.427 19.3908 39.3484 19.6598 39.5364 19.0753C39.7245 18.63 40.298 19.0846 39.9313 19.3629C39.4048 19.7155 39.2449 20.2814 39.3014 20.8473C39.3108 21.4782 40.2604 21.4782 40.2698 20.8473C40.2698 20.5968 40.2322 20.3 40.4954 20.1422C41.351 19.5949 41.0878 18.194 40.0911 17.9713ZM41.9246 9.02786C43.6169 9.02786 44.9991 10.2247 44.9991 11.6998C45.0555 13.6202 42.5733 14.9098 40.7211 14.1583C40.5895 14.2047 39.6116 14.6871 39.4894 14.6593C39.1321 14.6685 38.8783 14.2603 39.0569 13.9542L39.433 13.2584C37.938 11.4678 39.5552 8.9722 41.9246 9.02786ZM42.7143 12.0245C43.3537 12.0152 43.3537 11.0689 42.7143 11.0596C42.075 11.0689 42.075 12.0338 42.7143 12.0245ZM40.6553 11.5513C40.6553 12.1729 41.6237 12.1822 41.6237 11.5513C41.6331 10.9112 40.6553 10.9205 40.6553 11.5513ZM13.8028 0.000915161C16.1721 -0.0547495 17.7987 2.44088 16.2943 4.22215L16.6704 4.91796C16.849 5.22411 16.5952 5.63232 16.2473 5.62304C16.1063 5.65088 15.1473 5.16845 15.0062 5.12206C10.5214 6.59717 8.80081 0.325626 13.8028 0.000915161ZM14.5831 3.00681C15.2225 2.99753 15.2225 2.05123 14.5831 2.04195C13.9532 2.04195 13.9438 3.00681 14.5831 3.00681ZM13.013 3.00681C13.6523 2.99753 13.6523 2.05123 13.013 2.04195C12.383 2.05123 12.3736 2.99753 13.013 3.00681Z" fill="#65B207"/>
</svg>
