<svg width="45" height="45" viewBox="0 0 45 45" fill="none" xmlns="http://www.w3.org/2000/svg">
<path d="M11.1584 22.4998V22.1294H16.6686C16.8732 22.1294 17.039 22.2952 17.039 22.4998C17.039 25.5101 19.4881 27.9593 22.4992 27.9593C25.5103 27.9593 27.9603 25.5101 27.9603 22.4998C27.9603 22.2952 28.1269 22.1294 28.3306 22.1294H33.8418V22.4998C33.8418 28.7529 28.7538 33.8411 22.4992 33.8411C16.2445 33.8411 11.1584 28.7529 11.1584 22.4998ZM44.6297 22.1294H41.8737V19.3683C42.8395 19.062 43.54 18.1742 43.54 17.1291C43.54 15.8312 42.4602 14.7754 41.133 14.7754C39.8057 14.7754 38.7232 15.8312 38.7232 17.1291C38.7232 18.1745 39.4249 19.0626 40.3922 19.3685V22.1294H35.3232V22.4998C35.3232 29.5705 29.5704 35.3227 22.4991 35.3227C15.4278 35.3227 9.67685 29.5705 9.67685 22.4998V22.1294H4.60787V19.3683C5.5737 19.062 6.27417 18.1742 6.27417 17.1291C6.27417 15.8312 5.19435 14.7754 3.86713 14.7754C2.53991 14.7754 1.4575 15.8312 1.4575 17.1291C1.4575 18.1745 2.15917 19.0625 3.12639 19.3685V22.1294H0.37037C0.165741 22.1294 0 22.2952 0 22.4998V25.3453C0 25.4898 0.0842593 25.6213 0.214815 25.6815L4.52037 27.6686L6.13056 31.5567L4.49167 36.007C4.44167 36.1431 4.475 36.2949 4.57685 36.3968L8.60185 40.4229C8.70463 40.5248 8.85648 40.5581 8.99167 40.5081L13.4417 38.8682L17.3306 40.4794L19.3167 44.7842C19.3778 44.9157 19.5083 45 19.6537 45H25.3444C25.4889 45 25.6194 44.9157 25.6806 44.7842L27.6694 40.4794L31.5583 38.8682L36.0083 40.5081C36.1435 40.5581 36.2954 40.5248 36.3981 40.4229L40.4204 36.3968C40.5222 36.2949 40.5565 36.1431 40.5065 36.007L38.8667 31.5567L40.4778 27.6686L44.7852 25.6815C44.9157 25.6213 45 25.4898 45 25.3453V22.4998C45 22.2952 44.8343 22.1294 44.6296 22.1294H44.6297ZM11.1584 14.0966C11.1584 13.8318 11.0177 13.5873 10.7881 13.4549L6.28278 10.8527C6.3188 10.691 6.33833 10.5234 6.33833 10.3514C6.33833 9.0536 5.25852 7.99771 3.9313 7.99771C2.60407 7.99771 1.52176 9.0536 1.52176 10.3514C1.52176 11.6493 2.60269 12.7052 3.9313 12.7052C4.53778 12.7052 5.09213 12.4842 5.51593 12.1209L9.67704 14.5244V22.1294H11.1585V14.0966H11.1584ZM35.3232 14.5244L39.4833 12.1215C39.9075 12.4844 40.4621 12.7052 41.069 12.7052C42.3962 12.7052 43.476 11.6493 43.476 10.3514C43.476 9.0536 42.3962 7.99771 41.069 7.99771C39.7418 7.99771 38.6594 9.0536 38.6594 10.3514C38.6594 10.5239 38.679 10.692 38.7153 10.8541L34.2123 13.455C33.9827 13.5874 33.8419 13.8319 33.8419 14.0967V22.1295H35.3234V14.5245L35.3232 14.5244ZM17.1896 7.36898H19.3924V20.014C19.3924 20.2185 19.5582 20.3843 19.7628 20.3843H25.2375C25.442 20.3843 25.6079 20.2185 25.6079 20.014V7.36898H27.8106C27.9531 7.36898 28.0829 7.2873 28.1445 7.15887C28.2061 7.03044 28.1887 6.87812 28.0996 6.767L22.7878 0.138803C22.7175 0.0511136 22.6112 0 22.4987 0C22.3862 0 22.28 0.0511136 22.2097 0.138803L16.9006 6.767C16.8116 6.87821 16.7942 7.03053 16.8558 7.15887C16.9175 7.2873 17.0472 7.36898 17.1896 7.36898ZM15.0889 20.3843C15.498 20.3843 15.8296 20.0527 15.8296 19.6436V12.8126C15.8296 12.4035 15.498 12.0718 15.0889 12.0718C14.6798 12.0718 14.3481 12.4035 14.3481 12.8126V19.6436C14.3481 20.0527 14.6798 20.3843 15.0889 20.3843ZM29.9088 20.3843C30.3179 20.3843 30.6495 20.0527 30.6495 19.6436V12.8126C30.6495 12.4035 30.3179 12.0718 29.9088 12.0718C29.4997 12.0718 29.1681 12.4035 29.1681 12.8126V19.6436C29.1681 20.0527 29.4997 20.3843 29.9088 20.3843Z" fill="#65B207"/>
</svg>
